<svg width="73" height="69" viewBox="0 0 73 69" fill="none" xmlns="http://www.w3.org/2000/svg">
<path fill-rule="evenodd" clip-rule="evenodd" d="M11.5779 17.8434C14.3158 15.2563 18.0287 13.803 21.9001 13.803C25.7715 13.803 29.4844 15.2563 32.2223 17.8434L36.5001 21.8834L40.7779 17.8434C42.1247 16.5254 43.7357 15.4741 45.517 14.7508C47.2982 14.0276 49.2141 13.6469 51.1526 13.631C53.0912 13.615 55.0137 13.9642 56.808 14.6581C58.6023 15.3519 60.2324 16.3766 61.6033 17.6724C62.9741 18.9681 64.0582 20.5089 64.7923 22.2048C65.5264 23.9008 65.8958 25.718 65.8789 27.5503C65.8621 29.3827 65.4593 31.1935 64.6942 32.8772C63.929 34.5608 62.8167 36.0836 61.4223 37.3566L36.5001 60.9167L11.5779 37.3566C8.84083 34.7687 7.30322 31.2593 7.30322 27.6C7.30322 23.9407 8.84083 20.4313 11.5779 17.8434V17.8434Z" stroke="black" stroke-width="2" stroke-linejoin="round"/>
</svg>
