<svg width="61" height="54" viewBox="0 0 61 54" fill="none" xmlns="http://www.w3.org/2000/svg">
<path fill-rule="evenodd" clip-rule="evenodd" d="M34.7606 9.71161C33.674 5.7628 27.326 5.7628 26.2394 9.71161C26.0772 10.305 25.759 10.8561 25.3107 11.32C24.8624 11.784 24.2968 12.1477 23.6597 12.3815C23.0227 12.6154 22.3322 12.7128 21.6446 12.6659C20.957 12.6189 20.2916 12.4289 19.7027 12.1113C15.7795 9.99511 11.2901 13.9692 13.6806 17.4422C15.2247 19.6849 13.8551 22.6111 10.9727 23.2312C6.50909 24.1906 6.50909 29.8126 10.9727 30.7694C11.6432 30.9132 12.2658 31.1951 12.7899 31.5923C13.314 31.9894 13.7248 32.4905 13.9887 33.0547C14.2526 33.6189 14.3623 34.2304 14.3088 34.8393C14.2552 35.4481 14.04 36.0372 13.6806 36.5585C11.2901 40.0314 15.7795 44.0055 19.7027 41.8894C20.2915 41.5712 20.957 41.3807 21.6448 41.3333C22.3326 41.2859 23.0233 41.383 23.6607 41.6166C24.2981 41.8503 24.8641 42.2139 25.3127 42.6778C25.7613 43.1418 26.0798 43.693 26.2423 44.2865C27.326 48.2378 33.6769 48.2378 34.7577 44.2865C34.9207 43.6933 35.2395 43.1425 35.6882 42.6788C36.1369 42.2152 36.7029 41.8518 37.3401 41.6183C37.9773 41.3847 38.6677 41.2875 39.3554 41.3346C40.043 41.3817 40.7083 41.5718 41.2973 41.8894C45.2205 44.0055 49.7099 40.0314 47.3194 36.5585C46.9606 36.037 46.7459 35.4481 46.6927 34.8394C46.6395 34.2307 46.7493 33.6194 47.0131 33.0554C47.277 32.4913 47.6875 31.9903 48.2112 31.5931C48.7349 31.1959 49.3572 30.9137 50.0273 30.7694C54.4909 29.81 54.4909 24.1881 50.0273 23.2312C49.3568 23.0874 48.7342 22.8055 48.2101 22.4084C47.686 22.0113 47.2752 21.5102 47.0113 20.9459C46.7474 20.3817 46.6377 19.7702 46.6912 19.1614C46.7448 18.5525 46.96 17.9635 47.3194 17.4422C49.7099 13.9692 45.2205 9.99511 41.2973 12.1113C40.7085 12.4294 40.043 12.6199 39.3552 12.6673C38.6674 12.7147 37.9767 12.6176 37.3393 12.384C36.7019 12.1503 36.1359 11.7868 35.6873 11.3228C35.2387 10.8589 34.9202 10.3077 34.7577 9.71414L34.7606 9.71161Z" stroke="black" stroke-width="2"/>
<path d="M35.5833 27C35.5833 29.4853 33.3074 31.5 30.5 31.5C27.6926 31.5 25.4167 29.4853 25.4167 27C25.4167 24.5147 27.6926 22.5 30.5 22.5C33.3074 22.5 35.5833 24.5147 35.5833 27Z" stroke="black" stroke-width="2"/>
</svg>
